/* XPM */
static char * kanban_048_xpm[] = {
"48 48 238 2",
"  	c None",
". 	c #7B5129",
"+ 	c #52514A",
"@ 	c #5A5D5A",
"# 	c #63594A",
"$ 	c #7B5D42",
"% 	c #7B6942",
"& 	c #7B6D4A",
"* 	c #7B714A",
"= 	c #636563",
"- 	c #73716B",
"; 	c #737173",
"> 	c #845121",
", 	c #8C5D29",
"' 	c #8C6539",
") 	c #8C6939",
"! 	c #946D39",
"~ 	c #947139",
"{ 	c #9C7139",
"] 	c #A56121",
"^ 	c #A56929",
"/ 	c #A56D31",
"( 	c #A57139",
"_ 	c #AD7539",
": 	c #B57939",
"< 	c #BD7931",
"[ 	c #846942",
"} 	c #8C6D42",
"| 	c #8C6D4A",
"1 	c #846D5A",
"2 	c #847552",
"3 	c #847952",
"4 	c #9C7142",
"5 	c #A57142",
"6 	c #A57942",
"7 	c #AD7942",
"8 	c #AD794A",
"9 	c #B57D42",
"0 	c #C67529",
"a 	c #D67D29",
"b 	c #8C825A",
"c 	c #94865A",
"d 	c #9C825A",
"e 	c #848273",
"f 	c #9C8E63",
"g 	c #AD824A",
"h 	c #AD8252",
"i 	c #B5824A",
"j 	c #BD8642",
"k 	c #B58252",
"l 	c #A58E63",
"m 	c #A59263",
"n 	c #A5966B",
"o 	c #AD9A6B",
"p 	c #B58A63",
"q 	c #B5A673",
"r 	c #BDAA73",
"s 	c #BDAE7B",
"t 	c #C68231",
"u 	c #CE8631",
"v 	c #D68229",
"w 	c #D68631",
"x 	c #D68E39",
"y 	c #DE8A31",
"z 	c #E78E31",
"A 	c #EF9231",
"B 	c #EF9639",
"C 	c #F79631",
"D 	c #F79639",
"E 	c #F79A39",
"F 	c #FF9631",
"G 	c #FF9639",
"H 	c #FF9A31",
"I 	c #FF9A39",
"J 	c #FFA239",
"K 	c #C68A52",
"L 	c #C6965A",
"M 	c #D6964A",
"N 	c #DE9242",
"O 	c #D69252",
"P 	c #DE9E5A",
"Q 	c #D6A25A",
"R 	c #CEAA6B",
"S 	c #C6B27B",
"T 	c #CEB67B",
"U 	c #D6AE6B",
"V 	c #D6A673",
"W 	c #D6A67B",
"X 	c #DEAE7B",
"Y 	c #D6BA7B",
"Z 	c #DEB273",
"` 	c #EF9A4A",
" .	c #E79E5A",
"..	c #F79E42",
"+.	c #EFA65A",
"@.	c #FFA242",
"#.	c #FFA64A",
"$.	c #FFAA4A",
"%.	c #F7A652",
"&.	c #FFAE52",
"*.	c #FFB252",
"=.	c #FFB65A",
"-.	c #E7AE63",
";.	c #EFAE63",
">.	c #EFAE73",
",.	c #EFB273",
"'.	c #FFAE63",
").	c #FFB263",
"!.	c #FFB66B",
"~.	c #FFBA63",
"{.	c #FFBE6B",
"].	c #F7B67B",
"^.	c #F7BE7B",
"/.	c #FFBE7B",
"(.	c #FFC36B",
"_.	c #F7C37B",
":.	c #FFC773",
"<.	c #FFC77B",
"[.	c #FFCB73",
"}.	c #FFCB7B",
"|.	c #8C8A8C",
"1.	c #8C8E8C",
"2.	c #948E8C",
"3.	c #94928C",
"4.	c #5A4931",
"5.	c #9C968C",
"6.	c #9C9A8C",
"7.	c #949694",
"8.	c #9C9694",
"9.	c #9C9A94",
"0.	c #A59E84",
"a.	c #A59E8C",
"b.	c #AD9A84",
"c.	c #A59E94",
"d.	c #B59E84",
"e.	c #A5A29C",
"f.	c #ADA694",
"g.	c #ADA69C",
"h.	c #BDA284",
"i.	c #B5AA94",
"j.	c #B5AE94",
"k.	c #B5AE9C",
"l.	c #BDAE94",
"m.	c #BDB694",
"n.	c #BDB69C",
"o.	c #BDB2A5",
"p.	c #CEBA84",
"q.	c #C6B694",
"r.	c #C6B69C",
"s.	c #C6BA94",
"t.	c #C6BA9C",
"u.	c #CEBE94",
"v.	c #CEBE9C",
"w.	c #D6BE84",
"x.	c #DEB68C",
"y.	c #C6BEAD",
"z.	c #F7BA84",
"A.	c #CEC39C",
"B.	c #D6C384",
"C.	c #DEC78C",
"D.	c #DECB8C",
"E.	c #D6C79C",
"F.	c #DECF9C",
"G.	c #CEC3A5",
"H.	c #CEC7B5",
"I.	c #D6C7A5",
"J.	c #D6CBA5",
"K.	c #D6CBAD",
"L.	c #DECFA5",
"M.	c #D6CFB5",
"N.	c #D6CFBD",
"O.	c #DED3A5",
"P.	c #DED3AD",
"Q.	c #DED3B5",
"R.	c #E7CF8C",
"S.	c #E7CF94",
"T.	c #E7CF9C",
"U.	c #E7D394",
"V.	c #E7D39C",
"W.	c #E7D79C",
"X.	c #EFD794",
"Y.	c #EFD79C",
"Z.	c #EFDB9C",
"`.	c #FFC384",
" +	c #FFC78C",
".+	c #FFCB84",
"++	c #FFCF8C",
"@+	c #F7C794",
"#+	c #FFC794",
"$+	c #FFCF94",
"%+	c #FFD384",
"&+	c #FFD78C",
"*+	c #FFDB8C",
"=+	c #F7D794",
"-+	c #F7DF9C",
";+	c #FFD794",
">+	c #FFD79C",
",+	c #FFDB94",
"'+	c #FFDF94",
")+	c #FFDB9C",
"!+	c #E7D7A5",
"~+	c #E7D7AD",
"{+	c #EFD7A5",
"]+	c #EFDBA5",
"^+	c #EFDFAD",
"/+	c #E7DBB5",
"(+	c #E7DBBD",
"_+	c #F7DFA5",
":+	c #FFD7A5",
"<+	c #FFD7AD",
"[+	c #FFDFA5",
"}+	c #FFDFB5",
"|+	c #F7E39C",
"1+	c #FFE39C",
"2+	c #EFE3B5",
"3+	c #EFE3BD",
"4+	c #F7E3A5",
"5+	c #F7E3AD",
"6+	c #FFE7A5",
"7+	c #FFE7AD",
"8+	c #FFEBA5",
"9+	c #FFEBAD",
"0+	c #F7E7B5",
"a+	c #F7E7BD",
"b+	c #FFE7BD",
"c+	c #FFEFB5",
"d+	c #FFEFBD",
"e+	c #E7E3D6",
"f+	c #FFE7C6",
"g+	c #FFEFC6",
"h+	c #F7EFD6",
"i+	c #FFF3C6",
"j+	c #FFF3CE",
"k+	c #FFF7D6",
"l+	c #FFF7DE",
"m+	c #FFF7E7",
"n+	c #FFFBE7",
"o+	c #FFFBEF",
"                                                                                                ",
"                        !.@. .V                                                                 ",
"                       +I /.).@.H H I ..Q V W ].z.z.x.                                          ",
"                      I `.n+l+l+g+<+++{.&.J I I H z C O                                         ",
"                %.P ` #.l+n+l+k+k+j+j+i+i+d+8+*+@.N L F                                         ",
"              !.#.!.).f+n+l+k+k+j+j+i+i+d+d+d+c+~.B l D h                                       ",
"              #.`.o+o+n+l+k+k+j+j+i+i+d+d+d+c+c+%+I d +.G M P '.).).).).).).).).).).).).,.      ",
"              H :+o+n+l+l+k+j+j+i+i+g+d+d+d+c+c+)+H B %.H I #.&.&.&.&.&.&.&.&.&.&.&.&.&.I p     ",
"              H  +<+:+:+)+>+>+;+;+[+d+d+d+c+c+c+9+:.&.@.H H I @.&.~.}.&+1+6+8+6+8+8+6+6+@.8     ",
"          @.I I I I I I I I I I I I -.!+c+c+c+c+9+9+9+9+1+&+[.~.$.I I I I @.&.{.}.=+6+6+@.7     ",
"        #+I b+g+b+b+c+}+7+7+7+8+8+=.E + 0.!+5+9+9+9+9+9+9+9+8+8+8+6+,+%+(.=.#.I H I Z -+@.7     ",
"        #.{.n+l+l+k+j+j+i+i+d+d+c+,+J ' @ = e ]+V.V.4+9+9+8+8+8+8+8+8+6+6+6+6+1+%+I j w.@.7     ",
"    $+>.G }+n+l+k+k+j+i+i+d+d+d+c+c+$.z 7 Q i i i i i i K Q ;.{.{.(.{.}.-+6+8+8+&+I ~ T @.7     ",
"  @.I @.<.m+l+k+k+j+j+i+i+d+d+c+c+c+,+#.J J I I J I I J I J I I J I I I R Z.6+6+[.I [ B.@.7     ",
"  H >+o+n+m+l+k+j+j+i+i+d+d+d+c+c+c+9+9+9+6+8+6+8+6+8+8+6+6+6+6+6+6+*+I g C.6+6+~.C & R.@.7     ",
"  I >+m+e+l+h+k+(+i+i+i+d+d+c+c+5+^+9+9+9+9+9+9+8+8+8+8+8+8+8+8+8+8+,+I 6 B.6+8+&.y b X.@.7     ",
"  H @+7.|.3.|.e.|.o.P.g.3.7.n.f.|.f.^+5+4+]+E.i.c.c.4+E.F.V.Y.6+8+6+,+I 6 w.8+6+@.< m |+@.7     ",
"  I X |.|.9.y.7.|.|.|.9.n.f.|.9.f.|.|.|.|.|.|.3.f.q.8+c.|.|.E.8+8+8+,+I 6 w.6+,+I ( q 1+@.7     ",
"  H $+H.N.k+j+j+3+Q.2+d+c+c+c+c+9+^+E.A.E.F.{+6+8+8+8+6+F.F.8+6+8+6+,+I 6 w.6+%+H ) T 6+@.7     ",
"  H $+l+k+j+j+i+i+d+d+d+c+c+c+9+9+9+9+9+9+8+8+8+8+8+8+8+6+6+8+6+6+6+,+I 6 w.6+:.H % C.6+@.7     ",
"  I $+k+k+j+j+i+i+d+d+c+c+c+c+9+9+9+9+7+4+8+8+8+4+4+6+8+8+8+6+6+6+6+,+I 6 w.6+=.A 2 U.6+@.7     ",
"  H $+k+j+j+i+i+d+d+G.k.f.f.k.n.n.f.5.|.|.]+i.3.|.|.|.3.2.2.|.|.|.i.,+I 6 w.8+$.u c -+6+@.7     ",
"  H $+k+j+i+i+i+d+d+c.9.c.c.5.3.3.c.i.t.A.6+i.i.A.A.s.m.m.m.s.u.v.F.,+I ! p.1+J : o |+6+@.7     ",
"  I ++j+j+i+g+d+d+d+c+c+c+9+9+9+9+9+9+8+8+8+8+8+8+8+8+8+8+8+8+8+8+8+,+I 6 w.,+I { s 6+8+@.7     ",
"  H &+j+i+i+d+d+d+c+c+c+9+9+9+9+9+9+9+8+8+8+8+8+8+6+6+8+6+6+8+6+8+6+,+I 6 w.}.H } w.6+6+@.7     ",
"  H ++j+a+P.K.J.J.P.O.G.t.t.A.F.L.L.E.t.i.f.f.m.q.i.l.s.A.E.E.F.6+6+,+I 6 w.(.F & D.6+6+@.7     ",
"  I ++M.|.|.|.|.1.|.|.|.|.|.|.|.|.|.|.|.5.c.c.3.|.6.3.|.|.|.|.i.4+8+,+I 6 w.*.z 3 X.6+8+@.7     ",
"  H ++g+K./+0+0+5+~+~+5+9+9+4+]+!+!+]+6+8+8+6+6+8+6+6+6+4+_+_+6+8+6+,+I 6 w.@.t f -+8+6+@.7     ",
"  H .+i+d+d+d+c+c+c+9+9+9+9+9+9+8+8+8+8+8+8+6+6+8+6+6+8+6+6+8+6+8+6+,+I 6 Y I _ q 1+6+6+@.7     ",
"  I .+d+d+d+c+c+c+c+9+9+_+i.A.F.F.4+6+8+8+8+8+8+8+8+8+8+8+8+8+8+8+8+,+I 6 U H ! S 6+8+8+@.7     ",
"  H .+d+d+c+c+c+c+9+9+9+f.3.|.3.3.|.F.8+8+8+8+8+8+8+6+8+6+8+8+6+8+6+,+I 6 Q H [ B.6+6+6+@.7     ",
"  H .+a+0+c+c+c+9+9+9+9+4+6+F.m.E.c.i.i.V.3.1.1.1.|.1.|.|.m.8+8+8+6+,+I 6 M C * S.6+6+6+@.7     ",
"  I _.8.t.c+5+5+9+9+9+9+9+9+r.i.|.5.3.i.]+|.c.i.A.u.i.v.m.i.8+8+8+8+,+I 6 x y b X.6+8+8+@.7     ",
"  H V 3.9.n.9.6.I.!+l.F.!+4+8+c.|.A.t.]+4+|.f.c.6.6.6.s.q.i.8+8+8+6+,+I 6 w < n -+8+6+6+@.7     ",
"  H ^.f.3.3.|.|.|.f.|.|.|.F.8+V.i.f.i.]+4+|.|.|.|.|.|.|.|.m.8+6+8+6+,+I ( v ( r 1+8+6+6+@.7     ",
"  H }.^+3.3.3.|.|.|.5.m.6.]+8+8+8+8+8+6+8+F.3.i.4+4+4+V.3.A.8+8+8+6+,+I / a ) p.6+8+6+6+@.7     ",
"  I }.c+^+O.J.v.n.m.i.i.i.5.6+8+4+4+4+4+s.|.s.4+6+8+4+4+E.1.F.4+4+4+&+I ^ a % C.6+8+8+8+@.7     ",
"  H }.c+t.n.^+!+9+9+9+8+8+6.E.4+|.|.|.1.|.|.|.|.s.6+3.|.|.|.|.|.|.|.d.I ] 0 * X.8+8+8+8+@.7     ",
"  I }.L.f.3.|.3.6.3.j.8+8+E.3.V.3.]+m.f.E.E.V.m.l.4+|.F.m.u.u.F.T.u.b.I ] ] , ..#.#.#.#.I 4     ",
"  H }.c+9+L.3.f.c.i.]+8+8+8+f.f.3._+f.a.6.c.q.m.l.4+|.f.5.|.|.|.m.q.b.I ] > . 9 9 9 9 9 5 -     ",
"  H }.9+^+9+L.t.i.f.v.8+8+8+6+Y.3.6+8+6+6+8+6+m.l.6+5.3.3.3.3.3.3.3.h.I ] 4.                    ",
"  I <.f.|.f.m.n.t.A.F.8+8+8+8+]+3.8+8+8+8+8+8+m.l.8+6+6+6+6+6+6+6+6+,+I ] #                     ",
"  H <.t.L.i.t.m.i.f.m.8+8+8+6+]+2.V.V.V.W.V.V.i.m.6+6+8+6+6+8+6+8+6+,+I . ;                     ",
"  H <.9+9+9+9+8+8+8+8+8+8+6+6+_+5.3.3.3.3.3.3.3.u.6+6+8+6+6+8+6+8+6+,+I $                       ",
"  E J @.@.@.@.@.@.@.@.@.@.@.@.@.@.@.@.@.@.@.@.@.@.@.@.@.@.@.@.@.@.@.@.I 1                       ",
"    k 7 7 7 7 7 7 7 7 7 7 7 7 7 7 7 7 7 7 7 7 7 7 7 7 7 7 7 7 7 7 7 7 |                         ",
"                                                                                                ",
"                                                                                                "};
